<?xml version="1.0" encoding="UTF-8" standalone="no"?>
<!-- Created with Inkscape (http://www.inkscape.org/) -->

<svg
   width="47.463715mm"
   height="47.035664mm"
   viewBox="0 0 47.463715 47.035664"
   version="1.1"
   id="svg5"
   inkscape:version="1.1.2 (0a00cf5339, 2022-02-04)"
   sodipodi:docname="edit_pencil.svg"
   xmlns:inkscape="http://www.inkscape.org/namespaces/inkscape"
   xmlns:sodipodi="http://sodipodi.sourceforge.net/DTD/sodipodi-0.dtd"
   xmlns="http://www.w3.org/2000/svg"
   xmlns:svg="http://www.w3.org/2000/svg">
  <sodipodi:namedview
     id="namedview7"
     pagecolor="#ffffff"
     bordercolor="#666666"
     borderopacity="1.0"
     inkscape:pageshadow="2"
     inkscape:pageopacity="0.0"
     inkscape:pagecheckerboard="0"
     inkscape:document-units="mm"
     showgrid="false"
     inkscape:zoom="2.4443646"
     inkscape:cx="47.046992"
     inkscape:cy="109.02629"
     inkscape:window-width="1920"
     inkscape:window-height="959"
     inkscape:window-x="0"
     inkscape:window-y="0"
     inkscape:window-maximized="1"
     inkscape:current-layer="layer1" />
  <defs
     id="defs2" />
  <g
     inkscape:label="Layer 1"
     inkscape:groupmode="layer"
     id="layer1"
     transform="translate(-34.830979,-146.4554)">
    <path
       style="fill:#000000;stroke-width:0.264583"
       d="m 35.161708,193.43313 c -0.181901,-0.078 -0.330729,-0.53017 -0.330729,-1.00474 0,-0.97453 3.763436,-14.5973 4.341453,-15.71506 0.332878,-0.64371 26.11997,-26.21755 28.914906,-28.67578 1.309728,-1.15195 2.621196,-1.55646 5.122489,-1.58 2.13918,-0.0201 2.25323,0.0399 5.67428,2.9873 3.22348,2.77717 3.39343,3.10453 3.40994,6.56838 0.01,2.08877 -0.0946,2.99439 -0.41425,3.58798 -0.23517,0.4367 -6.8652,7.04467 -14.733388,14.68438 l -14.305801,13.89037 -3.429389,1.24679 c -3.882108,1.41138 -11.596856,3.79144 -12.99274,4.00836 -0.509323,0.0791 -1.07487,0.0801 -1.256771,0.002 z m 9.14873,-4.83967 c 1.989579,-0.57074 4.123431,-1.17064 4.741895,-1.33311 l 1.124479,-0.29541 v -1.70028 c 0,-2.05016 -0.237868,-2.24807 -2.70186,-2.24807 -2.27135,0 -2.739681,-0.36249 -2.982094,-2.30815 -0.282285,-2.26567 -0.442452,-2.45435 -2.083421,-2.45435 h -1.398756 l -1.392678,4.67318 c -1.313876,4.40875 -1.365199,4.68851 -0.907039,4.94423 0.267102,0.14908 0.780044,0.60599 1.139871,1.01536 0.359827,0.40937 0.696521,0.74431 0.748209,0.74431 0.05169,0 1.721816,-0.46697 3.711394,-1.03771 z m 29.390149,-23.75132 6.45814,-6.32516 -0.18753,-1.83045 c -0.10315,-1.00675 -0.24265,-1.88557 -0.31001,-1.95293 -0.13491,-0.13491 -0.86162,0.56607 -16.88469,16.28715 l -11.080524,10.87168 0.189875,2.02625 0.189875,2.02624 7.583356,-7.38881 c 4.170846,-4.06385 10.489522,-10.23514 14.041508,-13.71397 z m -6.061275,-0.0546 11.509375,-11.3551 -2.08841,-1.94281 c -1.14863,-1.06854 -2.26516,-2.04653 -2.48118,-2.1733 -0.3001,-0.17611 -3.727371,3.10411 -14.526136,13.90288 l -14.133362,14.13336 0.210578,1.70754 0.210578,1.70755 1.851882,0.20161 c 1.018536,0.11089 1.970946,0.24191 2.116466,0.29115 0.370706,0.12546 4.081102,-3.40138 17.330209,-16.47288 z m -8.401466,-2.07674 c 7.531222,-7.53018 13.693131,-13.76963 13.693131,-13.86545 0,-0.31222 -2.230574,0.0927 -2.947465,0.53504 -0.691817,0.42689 -27.265807,26.39117 -27.435519,26.80605 -0.04851,0.11857 0.605911,0.21559 1.454263,0.21559 h 1.542458 z"
       id="path10406" />
  </g>
</svg>
